<svg xmlns="http://www.w3.org/2000/svg" viewBox="0 0 480.6 141.73"><defs><style>.cls-1{fill:black;}.cls-2{fill:#fff;}</style></defs><g id="Layer_2" data-name="Layer 2"><g id="Layer_1-2" data-name="Layer 1"><rect class="cls-1" width="141.73" height="141.73" rx="5.67"/><path class="cls-2" d="M44.36,84.43a.87.87,0,0,0,.69,0l6.41-2.87a4,4,0,0,0,2.35-3.87,1.62,1.62,0,0,0,0-.22V37.18a.28.28,0,0,1,.17-.26l16.3-7.31a.3.3,0,0,1,.23,0l13.81,6.2a.14.14,0,0,1,0,.26l-15,6.74a4,4,0,0,0-1.94,1.84c0,.06,0,.11-.07.16a3.84,3.84,0,0,0-.43,1.78v45.5a.85.85,0,0,1-.5.77L45.92,102a3.9,3.9,0,0,0-2.3,3.17c0,.11,0,.21,0,.31a1.43,1.43,0,0,0,0,.29,4,4,0,0,0,2.35,3.78l23,10.3a3.52,3.52,0,0,0,.62.22,3.89,3.89,0,0,0,1.8.44,4.13,4.13,0,0,0,1.64-.35L93.5,111a4,4,0,0,0,2.36-3.86,1.48,1.48,0,0,0,0-.21V66.6a.28.28,0,0,1,.17-.26l10.26-4.6a.28.28,0,0,0,0-.52l-8.85-4a.83.83,0,0,0-.69,0l-6.45,2.9-.35.16-.5.32-.33.28a4.38,4.38,0,0,0-.36.39l0,0a1.89,1.89,0,0,0-.2.27,2.63,2.63,0,0,0-.2.33c0,.1-.11.21-.16.33s-.09.24-.13.37A2.36,2.36,0,0,0,88,63a2.2,2.2,0,0,0-.06.37,3.29,3.29,0,0,0,0,.45v40.73a.27.27,0,0,1-.17.25l-16.31,7.32a.3.3,0,0,1-.23,0l-13.82-6.2a.14.14,0,0,1,0-.26l15-6.74a4,4,0,0,0,2.22-2.61A3.92,3.92,0,0,0,74.86,95V49.26A.28.28,0,0,1,75,49l20.73-9.29a4,4,0,0,0,2.36-3.78,2.81,2.81,0,0,0,0-.29c0-.1,0-.21,0-.31a3.9,3.9,0,0,0-2.31-3.17L72.1,21.55a3.94,3.94,0,0,0-1.45-.34,1.85,1.85,0,0,0-.47,0,3.94,3.94,0,0,0-1.45.34L48.18,30.76a4,4,0,0,0-2.35,3.86,1.34,1.34,0,0,0,0,.2V75.13a.27.27,0,0,1-.17.25L35.43,80a.29.29,0,0,0,0,.52Z"/><path class="cls-1" d="M191.5,96.27h15.2V67.87H190.5V56.27h16.2v-7.5A15.2,15.2,0,0,1,210.55,38q3.85-4.16,11.95-4.15H240v11.6H221.5v10.8H240v11.6H221.5v28.4h16.2v11.6H191.5Z"/><path class="cls-1" d="M251.2,96.27H267V45.47H251.2V33.87h30.6v62.4h15.8v11.6H251.2Z"/><path class="cls-1" d="M343.1,98.47h-.6a18.45,18.45,0,0,1-5.35,7.5q-3.64,3.09-9.85,3.1a18.09,18.09,0,0,1-6.8-1.25,14,14,0,0,1-5.3-3.75,18,18,0,0,1-3.45-6.1,25.37,25.37,0,0,1-1.25-8.3V56.27h14.8v31.4q0,10,8.7,10a12.7,12.7,0,0,0,3.35-.45,8.41,8.41,0,0,0,2.9-1.4,7.86,7.86,0,0,0,2.05-2.35,6.61,6.61,0,0,0,.8-3.3V56.27h14.8v51.6H343.1Z"/><path class="cls-1" d="M373.8,96.27h16.4V67.87H373.8V56.27H405v40h15.2v11.6H373.8Zm23.8-46.6c-3.33,0-5.65-.69-7-2.05a6.93,6.93,0,0,1-1.95-4.95v-2.9a6.87,6.87,0,0,1,1.95-5c1.3-1.34,3.62-2,7-2s5.65.66,6.95,2a6.87,6.87,0,0,1,1.95,5v2.9a6.93,6.93,0,0,1-1.95,4.95C403.25,49,400.93,49.67,397.6,49.67Z"/><path class="cls-1" d="M431.8,96.27h11.9V67.87H431.8V56.27h26.7v14.6h.7a29.77,29.77,0,0,1,1.95-5.45,17.52,17.52,0,0,1,3.2-4.7,14.08,14.08,0,0,1,4.75-3.25,16.69,16.69,0,0,1,6.6-1.2h4.9v13.6h-11c-3.67,0-6.43,1.08-8.3,3.23A11.68,11.68,0,0,0,458.5,81V96.27h17v11.6H431.8Z"/></g></g></svg>